<?xml version="1.0" standalone="no"?>
<!DOCTYPE svg PUBLIC "-//W3C//DTD SVG 20010904//EN"
 "http://www.w3.org/TR/2001/REC-SVG-20010904/DTD/svg10.dtd">
<svg version="1.0" xmlns="http://www.w3.org/2000/svg"
 width="700.000000pt" height="700.000000pt" viewBox="0 0 700.000000 700.000000"
 preserveAspectRatio="xMidYMid meet">
<metadata>
Created by potrace 1.11, written by Peter Selinger 2001-2013
</metadata>
<g transform="translate(0.000000,700.000000) scale(0.100000,-0.100000)"
fill="#000000" stroke="none">
<path d="M3090 6146 c0 -44 -37 -113 -76 -143 -22 -16 -83 -39 -172 -63 -75
-21 -174 -52 -220 -69 -127 -47 -200 -38 -266 33 l-32 33 4 -62 c3 -48 0 -71
-17 -102 -24 -47 -42 -63 -170 -145 -52 -33 -127 -84 -167 -114 -39 -30 -89
-61 -110 -70 -49 -20 -122 -13 -171 17 l-35 22 17 -32 c9 -18 19 -54 22 -80 7
-63 -17 -116 -97 -206 -55 -63 -112 -135 -194 -248 -42 -57 -95 -80 -177 -75
l-69 4 25 -26 c59 -62 70 -152 29 -240 -35 -75 -96 -230 -124 -314 -35 -106
-108 -165 -206 -166 l-29 -1 30 -13 c44 -19 94 -75 107 -119 9 -29 9 -66 0
-155 -7 -64 -15 -173 -19 -242 -8 -168 -32 -214 -133 -259 -34 -15 -39 -20
-22 -20 32 -1 93 -28 120 -54 39 -36 52 -72 83 -221 16 -77 38 -172 49 -211
11 -38 20 -91 20 -116 0 -58 -35 -126 -80 -156 l-33 -23 65 0 c54 0 72 -5 104
-26 49 -34 53 -39 118 -160 30 -56 79 -141 110 -190 31 -49 61 -106 67 -127
13 -51 3 -108 -27 -152 -31 -46 -30 -49 6 -30 33 17 116 20 156 5 15 -6 80
-61 144 -123 64 -62 142 -132 173 -157 74 -59 112 -130 104 -198 -2 -26 -8
-56 -13 -66 -6 -17 -3 -16 27 6 42 32 110 51 152 43 18 -4 84 -33 147 -65 63
-32 158 -77 210 -99 139 -61 180 -108 180 -207 l0 -48 37 44 c40 46 101 79
146 80 15 0 87 -11 160 -24 73 -13 168 -27 212 -31 105 -9 170 -39 208 -97 15
-23 27 -50 27 -59 0 -34 18 -29 24 6 9 46 60 104 111 126 22 9 76 20 120 24
44 4 141 18 215 32 191 35 259 21 312 -65 l23 -37 5 55 c11 105 44 141 190
205 58 25 151 70 208 100 57 30 120 58 140 61 52 8 116 -11 156 -46 l34 -30
-14 37 c-32 92 0 180 91 252 31 24 109 94 174 157 65 62 130 118 145 124 39
15 121 12 161 -5 l35 -14 -24 32 c-35 45 -50 114 -37 163 6 22 35 78 64 124
30 47 83 139 119 205 57 106 70 124 113 150 40 25 58 30 107 29 l58 -1 -29 21
c-84 60 -97 136 -52 306 16 63 37 156 46 205 23 126 30 146 73 188 40 38 77
57 120 58 24 0 21 3 -18 20 -105 47 -120 80 -136 299 -7 96 -16 213 -20 260
-6 75 -4 91 14 125 22 45 52 75 97 98 l30 16 -42 1 c-98 1 -160 55 -199 174
-15 45 -53 143 -85 219 -79 184 -79 246 -1 330 l26 27 -33 -11 c-44 -15 -124
-5 -166 21 -19 12 -59 56 -89 98 -30 42 -81 108 -113 146 -134 159 -137 163
-141 225 -3 44 1 70 17 105 l20 47 -32 -23 c-24 -17 -49 -24 -102 -26 -66 -4
-73 -2 -120 31 -27 20 -111 76 -185 126 -176 118 -199 137 -223 190 -15 34
-18 56 -13 96 l6 53 -38 -38 c-37 -37 -91 -60 -143 -60 -15 0 -70 16 -123 35
-53 19 -150 49 -214 66 -133 36 -157 46 -193 86 -33 35 -45 58 -53 106 l-7 38
-23 -43 c-12 -24 -41 -56 -64 -73 l-42 -29 -258 -2 c-224 -1 -262 1 -298 16
-47 20 -77 49 -104 100 l-19 35 -1 -29z m776 -806 c365 -29 781 -141 1116
-300 88 -41 88 -43 88 -386 0 -279 -1 -301 -20 -331 -29 -49 -71 -66 -149 -61
-64 4 -70 7 -215 102 -254 168 -433 245 -699 302 -101 21 -159 27 -329 31
-136 4 -235 1 -289 -7 -360 -52 -632 -245 -784 -555 -58 -117 -84 -202 -111
-355 -23 -127 -23 -418 -1 -550 87 -516 385 -829 882 -927 111 -22 434 -24
570 -5 97 14 270 51 360 77 l55 16 0 295 0 294 -412 0 c-455 0 -456 0 -502 63
-20 27 -21 42 -21 265 0 216 2 239 19 265 44 64 11 62 771 65 380 2 715 0 745
-3 45 -6 61 -13 92 -45 l38 -38 0 -756 c0 -853 5 -798 -78 -840 -71 -36 -321
-129 -467 -175 -360 -112 -556 -144 -885 -144 -321 0 -514 28 -784 115 -653
208 -1062 722 -1145 1438 -29 245 -22 502 19 729 88 485 350 878 757 1133 356
224 858 329 1379 288z m-217 -691 c165 -38 312 -177 362 -341 18 -58 21 -88
17 -174 -4 -97 -7 -109 -46 -188 -129 -260 -439 -360 -695 -224 -189 101 -299
329 -255 532 24 109 63 181 138 256 105 106 207 148 355 149 44 0 100 -4 124
-10z m1105 -375 c64 -22 147 -100 177 -166 31 -71 32 -182 2 -249 -28 -63 -86
-125 -147 -157 -45 -24 -62 -27 -146 -27 -87 0 -100 3 -148 29 -226 126 -219
448 13 557 71 34 171 39 249 13z"/>
</g>
</svg>
