<svg height="1024" width="1024" xmlns="http://www.w3.org/2000/svg" xmlns:xlink="http://www.w3.org/1999/xlink"><linearGradient id="a"><stop offset="0" stop-color="#a8c7e1"/><stop offset="1" stop-color="#a8c7e1" stop-opacity="0"/></linearGradient><linearGradient id="b" gradientUnits="userSpaceOnUse" spreadMethod="reflect" x1="432.32297" x2="480" y1="560" y2="560"><stop offset="0" stop-color="#5b96c6"/><stop offset="1" stop-color="#1f4059"/></linearGradient><linearGradient id="c" gradientUnits="userSpaceOnUse" x1="430.6347" x2="430.6347" xlink:href="#a" y1="768" y2="746.63306"/><linearGradient id="d" gradientUnits="userSpaceOnUse" spreadMethod="reflect" x1="431.55594" x2="480" xlink:href="#a" y1="704" y2="704"/><linearGradient id="e" gradientTransform="matrix(1 0 0 .49162929 1.534062 -.079773)" gradientUnits="userSpaceOnUse" x1="430.6347" x2="430.6347" y1="768" y2="746.63306"><stop offset="0" stop-color="#6e98ba"/><stop offset="1" stop-color="#a8c7e1" stop-opacity="0"/></linearGradient><linearGradient id="f" gradientUnits="userSpaceOnUse" spreadMethod="reflect" x1="431.92337" x2="454.47391" xlink:href="#a" y1="345.8096" y2="345.8096"/><g fill="#478cbf"><path d="m0 0s-.325 1.994-.515 1.976l-36.182-3.491c-2.879-.278-5.115-2.574-5.317-5.459l-.994-14.247-27.992-1.997-1.904 12.912c-.424 2.872-2.932 5.037-5.835 5.037h-38.188c-2.902 0-5.41-2.165-5.834-5.037l-1.905-12.912-27.992 1.997-.994 14.247c-.202 2.886-2.438 5.182-5.317 5.46l-36.2 3.49c-.187.018-.324-1.978-.511-1.978l-.049-7.83 30.658-4.944 1.004-14.374c.203-2.91 2.551-5.263 5.463-5.472l38.551-2.75c.146-.01.29-.016.434-.016 2.897 0 5.401 2.166 5.825 5.038l1.959 13.286h28.005l1.959-13.286c.423-2.871 2.93-5.037 5.831-5.037.142 0 .284.005.423.015l38.556 2.75c2.911.209 5.26 2.562 5.463 5.472l1.003 14.374 30.645 4.966z" transform="matrix(4.162611 0 0 -4.162611 919.24059 673.152141)"/><path d="m0 0v-47.514-6.035-5.492c.108-.001.216-.005.323-.015l36.196-3.49c1.896-.183 3.382-1.709 3.514-3.609l1.116-15.978 31.574-2.253 2.175 14.747c.282 1.912 1.922 3.329 3.856 3.329h38.188c1.933 0 3.573-1.417 3.855-3.329l2.175-14.747 31.575 2.253 1.115 15.978c.133 1.9 1.618 3.425 3.514 3.609l36.182 3.49c.107.01.214.014.322.015v4.711l.015.005v54.325c5.09692 6.4164715 9.92323 13.494208 13.621 19.449-5.651 9.62-12.575 18.217-19.976 26.182-6.864-3.455-13.531-7.369-19.828-11.534-3.151 3.132-6.7 5.694-10.186 8.372-3.425 2.751-7.285 4.768-10.946 7.118 1.09 8.117 1.629 16.108 1.846 24.448-9.446 4.754-19.519 7.906-29.708 10.17-4.068-6.837-7.788-14.241-11.028-21.479-3.842.642-7.702.88-11.567.926v.006c-.027 0-.052-.006-.075-.006-.024 0-.049.006-.073.006v-.006c-3.872-.046-7.729-.284-11.572-.926-3.238 7.238-6.956 14.642-11.03 21.479-10.184-2.264-20.258-5.416-29.703-10.17.216-8.34.755-16.331 1.848-24.448-3.668-2.35-7.523-4.367-10.949-7.118-3.481-2.678-7.036-5.24-10.188-8.372-6.297 4.165-12.962 8.079-19.828 11.534-7.401-7.965-14.321-16.562-19.974-26.182 4.4426579-6.973692 9.2079702-13.9828876 13.621-19.449z" transform="matrix(4.162611 0 0 -4.162611 104.69892 427.387251)"/><path d="m0 0-1.121-16.063c-.135-1.936-1.675-3.477-3.611-3.616l-38.555-2.751c-.094-.007-.188-.01-.281-.01-1.916 0-3.569 1.406-3.852 3.33l-2.211 14.994h-31.459l-2.211-14.994c-.297-2.018-2.101-3.469-4.133-3.32l-38.555 2.751c-1.936.139-3.476 1.68-3.611 3.616l-1.121 16.063-32.547 3.138c.015-3.498.06-7.33.06-8.093 0-34.374 43.605-50.896 97.781-51.086h.066.067c54.176.19 97.766 16.712 97.766 51.086 0 .777.047 4.593.063 8.093z" transform="matrix(4.162611 0 0 -4.162611 784.07144 718.723121)"/></g><path d="m320 339.92783h384v454.82669h-384z" fill="#244966"/><path d="m352 366.68234h320v401.31769h-320z" fill="#122634"/><g transform="matrix(1.1358284 0 0 1 -52.158114 0)"><g transform="matrix(1 0 0 .858596 0 87.089254)"><path d="m384 352h96v416h-96z" fill="url(#b)"/><path d="m409.48026 334.43906h44.656013v17.560946h-44.656013z" fill="url(#f)"/></g><path d="m396.50183 746.7431h68.338982v21.256889h-68.338982z" fill="url(#c)"/><path d="m384 672h96v74.490982h-96z" fill="url(#d)"/><path d="m398.03516 367.04072v10.45081h17.96484v-2.8443h32v2.8443h18.375v-10.45081z" fill="url(#e)"/></g><g transform="matrix(-1.1358284 0 0 -1 1075.9756 1134.607)"><g transform="matrix(1 0 0 .858596 0 87.089254)"><path d="m384 352h96v416h-96z" fill="url(#b)"/><path d="m409.48026 334.43906h44.656013v17.560946h-44.656013z" fill="url(#f)"/></g><path d="m396.50183 746.7431h68.338982v21.256889h-68.338982z" fill="url(#c)"/><path d="m384 672h96v74.490982h-96z" fill="url(#d)"/><path d="m398.03516 367.04072v10.45081h17.96484v-2.8443h32v2.8443h18.375v-10.45081z" fill="url(#e)"/></g></svg>